<svg width="115" height="28" viewBox="0 0 115 28" fill="none" xmlns="http://www.w3.org/2000/svg">
<g clip-path="url(#clip0_15_86)">
<path d="M24.075 27.9615H6.44316L12.7706 21.4615H30.0166L24.075 27.9615Z" fill="url(#paint0_linear_15_86)" stroke="url(#paint1_linear_15_86)" stroke-width="0.965517"/>
<path d="M0.655891 8L5.9416 2.30769H21.5672L15.9973 8H0.655891Z" fill="url(#paint2_linear_15_86)" stroke="url(#paint3_linear_15_86)" stroke-width="0.965517"/>
<path d="M29.5151 2.30769H21.5672L0.0385666 24.3077V27.9615H6.44314L29.5151 4.26923V2.30769Z" fill="url(#paint4_linear_15_86)" stroke="url(#paint5_linear_15_86)" stroke-width="0.965517"/>
<path d="M42.3902 27.9137C40.8955 27.9137 39.5135 27.7504 38.2442 27.4238C36.9953 27.0973 35.9203 26.5972 35.0195 25.9237C34.139 25.2297 33.4531 24.3214 32.9617 23.1988C32.4908 22.0762 32.2553 20.729 32.2553 19.1574C32.2553 17.3204 32.6034 15.7488 33.2996 14.4425C33.9957 13.1158 34.9887 12.1054 36.2786 11.4115C37.5686 10.7175 39.0938 10.3705 40.8546 10.3705C42.759 10.3705 44.315 10.7685 45.523 11.5645C46.731 12.3606 47.601 13.4526 48.1335 14.8405C48.6864 16.2285 48.9117 17.8001 48.809 19.5554L48.7786 20.6576H35.5723V17.4735H43.6186V17.3204C43.6186 16.2999 43.3833 15.5141 42.9126 14.963C42.462 14.3915 41.7455 14.1057 40.7624 14.1057C40.1278 14.1057 39.5749 14.2486 39.1042 14.5343C38.6535 14.8201 38.2954 15.2997 38.0292 15.9733C37.7835 16.6265 37.6607 17.5245 37.6607 18.6675V19.6473C37.6607 20.729 37.8757 21.5761 38.3056 22.1884C38.7562 22.7803 39.3704 23.209 40.1482 23.4743C40.9264 23.7193 41.8377 23.8417 42.8817 23.8417C43.8235 23.8417 44.6835 23.7499 45.4617 23.5662C46.2599 23.3825 46.8742 23.1682 47.3044 22.9232H47.6115V27.1177C46.9972 27.3626 46.2599 27.5565 45.4 27.6994C44.5608 27.8423 43.5573 27.9137 42.3902 27.9137ZM53.9389 27.5769V17.2286C53.9389 16.8203 53.9285 16.2999 53.908 15.6672C53.908 15.014 53.8775 14.3813 53.8158 13.7689C53.7749 13.1362 53.7136 12.6361 53.6318 12.2687L53.724 12.0238C54.3995 11.738 55.1673 11.4727 56.0273 11.2278C56.9077 10.9828 57.8291 10.7787 58.7913 10.6154C59.774 10.4522 60.7466 10.3705 61.7089 10.3705C62.7737 10.3705 63.8077 10.4828 64.8108 10.7073C65.8144 10.9318 66.7152 11.3298 67.5135 11.9013C68.3326 12.4524 68.9777 13.228 69.4484 14.2282C69.9195 15.2283 70.1548 16.4938 70.1548 18.0246V27.5769H64.7495V18.2083C64.7495 17.249 64.606 16.5142 64.3197 16.0039C64.033 15.4937 63.6233 15.1365 63.0909 14.9323C62.5793 14.7282 61.9855 14.6262 61.3095 14.6262C60.7158 14.6262 60.1529 14.6976 59.6204 14.8405C59.0884 14.9834 58.6069 15.1263 58.1771 15.2691L58.9449 14.0751C59.0884 14.3813 59.1906 14.7895 59.252 15.2997C59.3133 15.7896 59.3442 16.4122 59.3442 17.1673V27.5769H53.9389ZM76.2291 27.5769V17.2286C76.2291 16.8203 76.2187 16.2999 76.1983 15.6672C76.1983 15.014 76.1678 14.3813 76.1064 13.7689C76.0651 13.1362 76.0038 12.6361 75.922 12.2687L76.0142 12.0238C76.6898 11.738 77.4576 11.4727 78.3176 11.2278C79.198 10.9828 80.1193 10.7787 81.0816 10.6154C82.0642 10.4522 83.0369 10.3705 83.9991 10.3705C85.064 10.3705 86.098 10.4828 87.1011 10.7073C88.1046 10.9318 89.0055 11.3298 89.8037 11.9013C90.6228 12.4524 91.2679 13.228 91.7386 14.2282C92.2097 15.2283 92.445 16.4938 92.445 18.0246V27.5769H87.0397V18.2083C87.0397 17.249 86.8966 16.5142 86.6099 16.0039C86.3233 15.4937 85.9135 15.1365 85.3811 14.9323C84.8695 14.7282 84.2757 14.6262 83.6002 14.6262C83.0064 14.6262 82.4431 14.6976 81.9107 14.8405C81.3786 14.9834 80.8975 15.1263 80.4673 15.2691L81.2351 14.0751C81.3786 14.3813 81.4809 14.7895 81.5422 15.2997C81.6036 15.7896 81.6344 16.4122 81.6344 17.1673V27.5769H76.2291ZM105.614 27.9443C102.911 27.9443 100.874 27.5463 99.502 26.7503C98.1304 25.9338 97.4445 24.5459 97.4445 22.5865C97.4445 21.3414 97.7516 20.331 98.3658 19.5554C99.0005 18.7798 99.8709 18.2185 100.976 17.8715C102.082 17.5041 103.341 17.3204 104.754 17.3204C105.45 17.3204 106.085 17.3613 106.658 17.4429C107.232 17.5245 107.774 17.6266 108.286 17.7491V20.9025C107.979 20.8005 107.569 20.7087 107.058 20.627C106.546 20.5453 106.054 20.5045 105.583 20.5045C104.498 20.5045 103.689 20.6576 103.157 20.9638C102.645 21.27 102.389 21.7802 102.389 22.4946C102.389 23.209 102.645 23.709 103.157 23.9948C103.689 24.2806 104.437 24.4234 105.399 24.4234C106.034 24.4234 106.648 24.3622 107.242 24.2397C107.835 24.0968 108.337 23.8621 108.747 23.5356L108.132 25.0358C107.989 24.7092 107.876 24.4132 107.794 24.1479C107.713 23.8825 107.651 23.607 107.61 23.3212C107.569 23.0151 107.539 22.6579 107.518 22.2497C107.518 21.821 107.518 21.2903 107.518 20.6576V17.4429C107.518 16.606 107.375 15.9631 107.088 15.5141C106.801 15.065 106.361 14.7691 105.767 14.6262C105.194 14.4629 104.467 14.3813 103.587 14.3813C102.706 14.3813 101.867 14.4629 101.068 14.6262C100.29 14.7691 99.6556 14.9528 99.1644 15.1773H98.8573V11.0747C99.5942 10.8706 100.413 10.7073 101.314 10.5848C102.236 10.442 103.208 10.3705 104.232 10.3705C105.481 10.3705 106.627 10.4828 107.672 10.7073C108.716 10.9318 109.617 11.3196 110.374 11.8707C111.152 12.4014 111.746 13.1464 112.156 14.1057C112.565 15.0446 112.77 16.2591 112.77 17.7491V21.4537C112.77 21.8823 112.78 22.413 112.8 23.0457C112.821 23.6784 112.852 24.301 112.893 24.9133C112.934 25.5256 113.005 26.0155 113.108 26.3829L112.985 26.6278C112.268 26.8932 111.511 27.1279 110.712 27.332C109.914 27.5157 109.084 27.6586 108.224 27.7606C107.365 27.8831 106.494 27.9443 105.614 27.9443Z" fill="url(#paint6_linear_15_86)"/>
</g>
<defs>
<linearGradient id="paint0_linear_15_86" x1="6.44316" y1="27.9615" x2="30.0061" y2="21.4237" gradientUnits="userSpaceOnUse">
<stop stop-color="#273945"/>
<stop offset="1" stop-color="#85A78E"/>
</linearGradient>
<linearGradient id="paint1_linear_15_86" x1="6.44316" y1="27.9615" x2="30.0061" y2="21.4237" gradientUnits="userSpaceOnUse">
<stop stop-color="#273945"/>
<stop offset="1" stop-color="#85A78E"/>
</linearGradient>
<linearGradient id="paint2_linear_15_86" x1="0.771637" y1="8" x2="21.4809" y2="2.27458" gradientUnits="userSpaceOnUse">
<stop stop-color="#58776B"/>
<stop offset="1" stop-color="#283C45"/>
</linearGradient>
<linearGradient id="paint3_linear_15_86" x1="0.771637" y1="8" x2="21.4809" y2="2.27458" gradientUnits="userSpaceOnUse">
<stop stop-color="#58776B"/>
<stop offset="1" stop-color="#283C45"/>
</linearGradient>
<linearGradient id="paint4_linear_15_86" x1="29.515" y1="2.3077" x2="0.118193" y2="28.0525" gradientUnits="userSpaceOnUse">
<stop stop-color="#B1DAAE"/>
<stop offset="1" stop-color="#3A5A53"/>
</linearGradient>
<linearGradient id="paint5_linear_15_86" x1="29.515" y1="2.3077" x2="0.118193" y2="28.0525" gradientUnits="userSpaceOnUse">
<stop stop-color="#B1DAAE"/>
<stop offset="1" stop-color="#3A5A53"/>
</linearGradient>
<linearGradient id="paint6_linear_15_86" x1="32.715" y1="13.9621" x2="112.274" y2="13.8744" gradientUnits="userSpaceOnUse">
<stop stop-color="#82A48C"/>
<stop offset="1" stop-color="#30444C"/>
</linearGradient>
<clipPath id="clip0_15_86">
<rect width="114.897" height="28" fill="white"/>
</clipPath>
</defs>
</svg>
